<?xml version="1.0" standalone="no"?>
<!DOCTYPE svg PUBLIC "-//W3C//DTD SVG 1.1//EN" "http://www.w3.org/Graphics/SVG/1.1/DTD/svg11.dtd" >
<svg xmlns="http://www.w3.org/2000/svg">
<metadata>
Created by FontPrep 20130207 at Mon Jun 10 13:00:23 2013
 By Killian Louis Grant
 The digitally encoded machine readable software for producing the Typefaces licensed to you is copyrighted (c) 1989, 1990 Adobe Systems. All rights reserved. This software is the property of Adobe Systems Incorporated and its licensors, and may not be reproduced, used, displayed, modified, disclosed, or transferred  without the express written approval of Adobe. The digitally encoded machine readable outline data for producing the Typefaces licensed to you is copyrighted (c) 1981 Linotype AG and/or its subsidiaries. All Rights Reserved. This data is the property of Linotype AG and/or its subsidiaries and may not be reproduced, used, displayed, modified, disclosed or transferred without the express written approval of Linotype AG and/or its subsidiaries. 
</metadata>
<defs>
<font id="2f81282b06b2e034ef5618b6fa5d4b36" >
  <font-face 
    font-family="TradeGothic-CondEighteen"
    font-weight="500"
    font-stretch="normal"
    units-per-em="2048"
    panose-1="2 0 6 3 0 0 0 0 0 0"
    ascent="1638"
    descent="-410"
    x-height="1065"
    cap-height="1479"
    bbox="-342 -442 2048 1946"
    underline-thickness="102"
    underline-position="-205"
    unicode-range="U+0020-FFFD"
  />
<missing-glyph horiz-adv-x="454" 
 />
    <glyph glyph-name=".notdef" unicode="&#xfffd;" horiz-adv-x="454" 
 />
    <glyph glyph-name=".null" horiz-adv-x="0" 
 />
    <glyph glyph-name="nonmarkingreturn" horiz-adv-x="681" 
 />
    <glyph glyph-name="space" unicode=" " horiz-adv-x="454" 
 />
    <glyph glyph-name="exclam" unicode="!" horiz-adv-x="681" 
d="M254 193h172v-193h-172v193zM287 438l-33 1041h172l-33 -1041h-106z" />
    <glyph glyph-name="quotedbl" unicode="&#x22;" horiz-adv-x="681" 
d="M408 954v525h127v-525h-127zM147 954v525h127v-525h-127z" />
    <glyph glyph-name="numbersign" unicode="#" 
d="M580 899h-203l-37 -319h205zM823 580v-115h-172l-51 -465h-121l51 465h-202l-52 -465h-120l53 465h-172v115h184l37 319h-170v115h180l54 465h118l-51 -465h203l51 465h121l-53 -465h161v-115h-172l-36 -319h159z" />
    <glyph glyph-name="dollar" unicode="$" 
d="M78 406h147q6 -238 168 -283v602q-230 150 -279 276q-24 59 -24 132q0 139 84 234t219 112v196h103v-196q147 -21 227 -127t84 -267h-148q-6 94 -46 170t-117 101v-522q82 -56 122 -88t100 -92q115 -115 114 -279t-93 -262t-243 -113v-238h-103v238q-151 22 -233 132
t-82 274zM393 905v451q-71 -14 -113 -72t-42 -135q-1 -127 155 -244zM684 354q0 94 -49 162t-139 139v-532q86 8 137 73q51 64 51 158z" />
    <glyph glyph-name="percent" unicode="%" horiz-adv-x="1593" 
d="M1135 1499h118l-847 -1519h-119zM217 1159q0 -80 56 -138q57 -58 141 -58t140 58t56 138t-56 138q-56 59 -140 59t-140 -58t-57 -139zM94 1159q0 131 92 225t228 94t227 -94q92 -94 92 -225t-92 -225t-227 -94t-228 94q-92 94 -92 225zM909 319q1 -80 57 -138t140 -58
t140 58t57 138q-1 81 -57 139t-140 58t-140 -58t-57 -139zM786 319q0 131 92 225t228 95q135 0 227 -94q92 -93 92 -225t-92 -226t-227 -94q-136 0 -228 94t-92 225z" />
    <glyph glyph-name="ampersand" unicode="&#x26;" horiz-adv-x="1138" 
d="M242 1182q0 156 72 236t190 81q118 0 194 -76t76 -177t-43 -189t-85 -133t-132 -131q113 -231 264 -408q48 121 66 332l143 -8q-18 -250 -102 -439q70 -82 180 -159l-86 -111q-96 45 -184 139q-131 -159 -309 -159t-281 101t-103 263t89 282q51 69 100 121t55 60
q-104 219 -104 375zM461 915q166 187 166 319q0 72 -33 114t-74 41q-131 -1 -131 -191q1 -86 21 -144q20 -57 27 -80q6 -24 24 -59zM250 350q0 -98 64 -167t184 -68q59 0 114 35t93 88q-168 199 -299 448q-156 -164 -156 -336z" />
    <glyph glyph-name="quotesingle" unicode="'" horiz-adv-x="454" 
d="M164 954v525h127v-525h-127z" />
    <glyph glyph-name="parenleft" unicode="(" horiz-adv-x="569" 
d="M270 637q0 -410 217 -801l-98 -61q-133 209 -193 411t-61 451q1 249 61 451t193 411l98 -61q-217 -391 -217 -801z" />
    <glyph glyph-name="parenright" unicode=")" horiz-adv-x="569" 
d="M434 636q0 -248 -60 -450q-60 -203 -194 -411l-98 61q217 391 217 801t-217 801l98 61q134 -209 194 -412t60 -451z" />
    <glyph glyph-name="asterisk" unicode="*" 
d="M522 1479l-41 -324l295 143l41 -135l-315 -65l233 -230l-119 -90l-161 283l-162 -283l-119 90l234 230l-316 65l41 135l295 -143l-41 324h135z" />
    <glyph glyph-name="plus" unicode="+" horiz-adv-x="1228" 
d="M547 600v465h135v-465h465v-135h-465v-465h-135v465h-465v135h465z" />
    <glyph glyph-name="comma" unicode="," horiz-adv-x="454" 
d="M141 193h172v-205l-123 -295h-61l94 307h-82v193z" />
    <glyph glyph-name="hyphen" unicode="-" horiz-adv-x="681" 
d="M592 465h-504v135h504v-135z" />
    <glyph glyph-name="period" unicode="." horiz-adv-x="454" 
d="M141 193h172v-193h-172v193z" />
    <glyph glyph-name="slash" unicode="/" horiz-adv-x="569" 
d="M115 -20h-135l475 1519h135z" />
    <glyph glyph-name="zero" unicode="0" 
d="M811 739q0 -397 -87 -578t-269 -181t-270 181q-87 181 -87 578t87 579t269 181q182 1 270 -181q87 -182 87 -579zM664 739q0 349 -52 493t-157 144t-157 -143t-52 -493t51 -494t157 -144t158 144t52 493z" />
    <glyph glyph-name="one" unicode="1" 
d="M717 0h-500v123h180v1188l-184 -17v90q137 33 233 115h99v-1376h172v-123z" />
    <glyph glyph-name="two" unicode="2" 
d="M795 0h-697v123q61 206 248 454q72 93 139 185q154 208 154 381q0 113 -50 173t-135 60q-84 0 -142 -76t-66 -235h-135q20 434 346 434q149 0 239 -98t90 -279q0 -128 -57 -242t-134 -200t-183 -238t-179 -319h562v-123z" />
    <glyph glyph-name="three" unicode="3" 
d="M424 1499q135 0 232 -93q98 -93 98 -255t-54 -253t-139 -107v-5q217 -72 217 -368q0 -215 -104 -327q-104 -111 -252 -111t-242 105q-92 105 -94 267h135q18 -250 213 -250q80 0 138 83t58 244t-77 229q-78 68 -258 67v123q172 0 242 58t69 224q0 246 -172 246
q-88 0 -130 -60t-46 -149l-135 17q12 139 89 227t212 88z" />
    <glyph glyph-name="four" unicode="4" 
d="M670 1479v-1020h153v-123h-153v-336h-148v336h-473v70l406 1073h215zM522 459v884h-4l-330 -884h334z" />
    <glyph glyph-name="five" unicode="5" 
d="M438 102q98 0 160 100t61 287q0 362 -202 363q-61 0 -115 -41t-72 -102l-114 20l49 750h520l-12 -123h-389l-29 -451q82 70 208 70t215 -125q89 -124 89 -362t-102 -373q-103 -135 -257 -135t-238 99t-95 253l135 12q29 -242 188 -242z" />
    <glyph glyph-name="six" unicode="6" 
d="M254 508q0 -217 53 -311t156 -95q193 0 193 336t-185 336q-123 0 -217 -127v-139zM475 1376q-211 0 -217 -592q104 113 234 113t220 -110t91 -335q0 -225 -86 -349t-232 -123q-201 0 -289 147t-90 532q0 840 373 840q135 0 201 -74t90 -213l-135 -8q-25 172 -160 172z
" />
    <glyph glyph-name="seven" unicode="7" 
d="M123 1356v123h663v-78l-430 -1401h-155l430 1356h-508z" />
    <glyph glyph-name="eight" unicode="8" 
d="M819 373q0 -166 -99 -280q-99 -113 -265 -113t-266 113q-99 114 -99 280q0 246 238 413q-104 84 -155 170q-50 86 -50 220t96 228q95 94 235 95q140 0 236 -94q96 -95 96 -229t-50 -220t-154 -170q237 -167 237 -413zM639 1184q0 78 -47 135t-137 57q-89 0 -137 -57
t-48 -135q0 -215 185 -328q184 113 184 328zM238 370q0 -104 56 -186t160 -82t162 82q56 82 56 186q0 106 -56 184t-161 155q-105 -78 -161 -156t-56 -183z" />
    <glyph glyph-name="nine" unicode="9" 
d="M655 971q0 217 -53 311t-156 94q-192 0 -192 -336t184 -335q123 -1 217 126v140zM434 102q211 0 217 592q-104 -112 -234 -112t-220 110q-91 110 -91 334q0 225 86 349t232 124q201 0 290 -147t89 -533q0 -840 -373 -839q-135 0 -202 73q-66 74 -89 213l135 8
q25 -172 160 -172z" />
    <glyph glyph-name="colon" unicode=":" horiz-adv-x="454" 
d="M141 750h172v-193h-172v193zM141 193h172v-193h-172v193z" />
    <glyph glyph-name="semicolon" unicode=";" horiz-adv-x="454" 
d="M141 750h172v-193h-172v193zM141 193h172v-205l-123 -295h-61l94 307h-82v193z" />
    <glyph glyph-name="less" unicode="&#x3c;" horiz-adv-x="1228" 
d="M1147 147v-141l-1065 475v103l1065 475v-141l-864 -386z" />
    <glyph glyph-name="equal" unicode="=" horiz-adv-x="1228" 
d="M82 246v135h1065v-135h-1065zM82 684v135h1065v-135h-1065z" />
    <glyph glyph-name="greater" unicode="&#x3e;" horiz-adv-x="1228" 
d="M82 6v141l864 385l-864 386v141l1065 -475v-103z" />
    <glyph glyph-name="question" unicode="?" horiz-adv-x="796" 
d="M227 193h172v-193h-172v193zM383 438h-115v103q0 106 39 200q39 95 86 153t86 146t39 174t-36 124t-90 38t-93 -54t-45 -122l-123 25q10 121 83 197t188 77q116 0 190 -72t74 -184q0 -195 -100 -331q-42 -56 -84 -111q-99 -130 -99 -281v-82z" />
    <glyph glyph-name="at" unicode="@" horiz-adv-x="1638" 
d="M1421 862q0 234 -167 378q-166 144 -416 144t-429 -188t-179 -458t184 -457q184 -186 450 -187q144 0 282 66t222 178h129q-98 -166 -269 -262t-368 -96q-324 0 -545 222t-221 538t222 538t522 221q300 0 504 -178q202 -179 202 -437t-159 -430t-318 -171q-55 1 -91 35
t-42 100l-4 -2q-121 -133 -250 -133t-211 93t-82 226q0 221 136 397t343 177q162 0 230 -160l45 127h129l-176 -578q-20 -65 -20 -113t44 -49q109 -1 206 147t97 312zM715 418q125 0 221 148t96 286q0 74 -51 133t-115 59q-133 0 -228 -141t-95 -287q0 -88 48 -143t124 -55z
" />
    <glyph glyph-name="A" unicode="A" 
d="M344 1479h221l326 -1479h-160l-88 438h-377l-88 -438h-160zM453 1368l-164 -795h332l-164 795h-4z" />
    <glyph glyph-name="B" unicode="B" horiz-adv-x="1024" 
d="M295 1343v-499h90q176 0 254 61t78 197q-1 136 -61 189q-60 52 -201 52h-160zM295 709v-574h160q295 0 295 275q0 150 -71 224t-224 75h-160zM135 0v1479h393q164 1 256 -99t93 -266q1 -119 -55 -207t-171 -121v-4q129 -35 194 -132t64 -240q0 -207 -116 -309
q-117 -101 -359 -101h-299z" />
    <glyph glyph-name="C" unicode="C" horiz-adv-x="1024" 
d="M522 1364q-140 0 -204 -142t-64 -482t63 -483q63 -142 205 -142q117 0 177 89t63 288h160q-4 -246 -108 -379t-302 -133t-308 178t-110 581t110 581t318 179q342 0 379 -467h-160q-29 332 -219 332z" />
    <glyph glyph-name="D" unicode="D" horiz-adv-x="1024" 
d="M135 0v1479h275q240 0 371 -163q130 -163 129 -578q-1 -414 -131 -576t-369 -162h-275zM295 1343v-1208h86q93 0 157 24q144 54 188 273q24 121 24 307q0 368 -98 493q-50 64 -113 88t-158 23h-86z" />
    <glyph glyph-name="E" unicode="E" 
d="M135 1479h676v-136h-516v-503h381v-135h-381v-570h541v-135h-701v1479z" />
    <glyph glyph-name="F" unicode="F" horiz-adv-x="796" 
d="M135 0v1479h635v-136h-475v-503h356v-135h-356v-705h-160z" />
    <glyph glyph-name="G" unicode="G" horiz-adv-x="1024" 
d="M518 1364q-136 0 -200 -142t-64 -482t63 -483q63 -142 201 -142q113 0 172 60t60 173v209h-201v135h360v-692h-102l-21 111q-98 -131 -268 -131q-204 0 -314 178t-110 581t110 581t314 179q270 0 360 -299q23 -80 31 -176h-159q-23 340 -232 340z" />
    <glyph glyph-name="H" unicode="H" horiz-adv-x="1024" 
d="M135 1479h160v-639h434v639h160v-1479h-160v705h-434v-705h-160v1479z" />
    <glyph glyph-name="I" unicode="I" horiz-adv-x="454" 
d="M147 1479h160v-1479h-160v1479z" />
    <glyph glyph-name="J" unicode="J" horiz-adv-x="569" 
d="M274 1479h160v-1110q0 -223 -82 -307t-282 -82q-20 0 -82 12l12 139q45 -16 92 -16q98 0 140 49t42 168v1147z" />
    <glyph glyph-name="K" unicode="K" 
d="M115 1479h159v-754h5l413 754h172l-286 -516l340 -963h-173l-274 799h-4l-193 -344v-455h-159v1479z" />
    <glyph glyph-name="L" unicode="L" horiz-adv-x="796" 
d="M135 1479h160v-1344h479v-135h-639v1479z" />
    <glyph glyph-name="M" unicode="M" horiz-adv-x="1251" 
d="M115 1479h254l258 -1119h4l252 1119h254v-1479h-148v1356h-4l-307 -1356h-105l-307 1356h-4v-1356h-147v1479z" />
    <glyph glyph-name="N" unicode="N" horiz-adv-x="1024" 
d="M115 1479h250l380 -1090h5v1090h159v-1479h-172l-458 1286h-5v-1286h-159v1479z" />
    <glyph glyph-name="O" unicode="O" horiz-adv-x="1024" 
d="M930 739q0 -760 -418 -759q-418 0 -418 760t418 759q418 0 418 -760zM770 739q0 240 -36 383q-36 142 -90 192t-132 50t-132 -49t-90 -193t-36 -383q0 -240 36 -383t90 -192t132 -49t132 49t90 192t36 383z" />
    <glyph glyph-name="P" unicode="P" 
d="M274 1343v-540h168q254 0 254 270t-254 270h-168zM115 0v1479h348q178 0 286 -111q107 -111 107 -295t-108 -295t-285 -110h-189v-668h-159z" />
    <glyph glyph-name="Q" unicode="Q" horiz-adv-x="1024" 
d="M94 740q0 760 418 759q418 0 418 -760q0 -397 -115 -585q76 -123 156 -129v-140q-145 8 -242 168q-88 -74 -217 -73q-418 0 -418 760zM770 710q0 489 -126 605q-54 49 -132 49t-132 -49t-90 -193t-36 -383q0 -240 36 -383t90 -192t137 -49t138 65q-47 66 -110 107v131
q96 -27 172 -121q53 143 53 413z" />
    <glyph glyph-name="R" unicode="R" horiz-adv-x="1024" 
d="M135 0v1479h357q182 1 294 -101t111 -282q0 -279 -238 -363l250 -733h-168l-237 700l-209 -8v-692h-160zM295 1343v-512h139q166 -1 235 63t68 193q0 129 -68 193q-69 63 -235 63h-139z" />
    <glyph glyph-name="S" unicode="S" 
d="M436 1364q-92 0 -147 -54t-55 -142q-1 -157 209 -295q87 -56 174 -119q87 -62 149 -164t61 -234q0 -178 -98 -277t-275 -99t-277 114q-99 115 -103 303h147q3 -133 65 -208t172 -75t168 64q58 62 58 160q0 173 -154 283q-190 136 -271 202q-169 138 -169 332
q0 156 98 250t259 94t259 -104t105 -297h-147q-23 266 -228 266z" />
    <glyph glyph-name="T" unicode="T" horiz-adv-x="796" 
d="M14 1479h766v-136h-303v-1343h-160v1343h-303v136z" />
    <glyph glyph-name="U" unicode="U" horiz-adv-x="1024" 
d="M135 1479h160v-1086q0 -279 217 -278q217 0 217 278v1086h160v-1090q0 -188 -93 -299q-94 -110 -284 -110t-284 110q-93 111 -93 299v1090z" />
    <glyph glyph-name="V" unicode="V" 
d="M33 1479h160l260 -1172h4l260 1172h160l-349 -1479h-147z" />
    <glyph glyph-name="W" unicode="W" horiz-adv-x="1251" 
d="M12 1479h148l176 -1155h4l221 1155h131l230 -1155h4l164 1155h147l-238 -1479h-135l-233 1161h-4l-234 -1161h-135z" />
    <glyph glyph-name="X" unicode="X" 
d="M41 1479h172l225 -525l209 525h172l-291 -693l353 -786h-172l-271 618l-237 -618h-172l319 786z" />
    <glyph glyph-name="Y" unicode="Y" 
d="M537 0h-160v627l-344 852h172l254 -648l246 648h172l-340 -852v-627z" />
    <glyph glyph-name="Z" unicode="Z" 
d="M139 1479h680v-111l-549 -1233h549v-135h-729v115l533 1228h-484v136z" />
    <glyph glyph-name="bracketleft" unicode="[" horiz-adv-x="569" 
d="M123 -205v1684h377v-82h-242v-1520h242v-82h-377z" />
    <glyph glyph-name="backslash" unicode="\" horiz-adv-x="569" 
d="M590 -20h-135l-475 1519h135z" />
    <glyph glyph-name="bracketright" unicode="]" horiz-adv-x="569" 
d="M446 1479v-1684h-376v82h241v1520h-241v82h376z" />
    <glyph glyph-name="asciicircum" unicode="^" horiz-adv-x="1228" 
d="M127 604l430 875h115l430 -875h-148l-340 701l-340 -701h-147z" />
    <glyph glyph-name="underscore" unicode="_" horiz-adv-x="1024" 
d="M1024 -256h-1024v102h1024v-102z" />
    <glyph glyph-name="grave" unicode="`" horiz-adv-x="454" 
d="M242 1184l-258 282h159l201 -282h-102z" />
    <glyph glyph-name="a" unicode="a" 
d="M246 266q0 -164 151 -164q97 0 203 111v360q-118 -36 -236 -112q-118 -77 -118 -195zM448 1085q139 0 220 -79q80 -80 80 -224v-594q0 -147 26 -188h-153l-19 90q-45 -45 -112 -78t-115 -32q-125 0 -201 74t-76 184q0 203 164 313t338 145v76q0 88 -42 139t-116 51
t-120 -62t-60 -146l-135 20q23 137 102 224q80 87 219 87z" />
    <glyph glyph-name="b" unicode="b" 
d="M463 102q98 0 149 98q52 98 52 334q0 234 -50 331t-147 98q-66 -1 -160 -95v-663q33 -45 77 -74t79 -29zM160 287v1192h147v-492q98 98 197 98q137 0 222 -132t85 -421q0 -288 -85 -420t-221 -132t-222 122l-33 -102h-115q25 92 25 287z" />
    <glyph glyph-name="c" unicode="c" horiz-adv-x="796" 
d="M397 963q-98 -1 -138 -89t-40 -342t40 -342t138 -88q74 0 114 50t58 184h144q-17 -164 -97 -260t-219 -96q-169 0 -247 133t-78 419t79 420q79 133 246 133q265 1 312 -335h-144q-18 213 -168 213z" />
    <glyph glyph-name="d" unicode="d" 
d="M246 534q0 -234 51 -333q51 -98 149 -99q35 0 79 29t77 74v663q-94 94 -160 95q-98 1 -147 -97t-49 -332zM98 532q0 288 85 421q85 132 223 132q98 0 196 -98v492h148v-1192q0 -195 24 -287h-139l-6 102h-4q-84 -122 -220 -122t-222 132q-85 132 -85 420z" />
    <glyph glyph-name="e" unicode="e" horiz-adv-x="796" 
d="M723 508h-504v-59q0 -193 46 -270t153 -77q139 0 178 201l139 -16q-18 -127 -108 -217t-230 -90q-169 0 -247 133t-78 419t79 420q79 133 245 133t246 -134q81 -134 81 -373v-70zM402 963q-91 0 -136 -76t-47 -256h356q-4 178 -43 255t-130 77z" />
    <glyph glyph-name="f" unicode="f" horiz-adv-x="569" 
d="M37 942v123h164v217q0 111 50 164t167 53q45 0 114 -12v-115q-35 16 -79 17q-104 0 -105 -113v-211h172v-123h-172v-942h-147v942h-164z" />
    <glyph glyph-name="g" unicode="g" 
d="M298 312q-24 -18 -24 -48q0 -58 116 -80q52 -10 86 -16q182 -33 265 -90q83 -58 83 -170t-99 -184q-98 -72 -269 -72t-265 61q-93 61 -93 168q0 70 41 126t115 87q-51 16 -83 54t-32 92t41 92q41 37 99 47q-59 43 -94 130q-34 87 -33 175q0 188 84 294t225 107
q57 1 113 -25t81 -73q56 98 181 98v-135q-16 4 -53 4t-83 -41q33 -104 33 -204q0 -189 -79 -285t-208 -96l-98 8q-26 -6 -50 -24zM287 707q0 -268 155 -269q156 0 156 268t-156 269q-156 0 -155 -268zM688 -86q0 56 -76 85q-79 29 -147 41q-69 13 -88 17q-143 -61 -144 -145
q1 -70 59 -110t175 -40q221 0 221 152z" />
    <glyph glyph-name="h" unicode="h" 
d="M147 0v1479h148v-531q47 55 115 96t118 41q233 0 234 -278v-807h-148v786q0 176 -116 177q-98 0 -203 -132v-831h-148z" />
    <glyph glyph-name="i" unicode="i" horiz-adv-x="454" 
d="M154 1307v172h147v-172h-147zM154 0v1065h147v-1065h-147z" />
    <glyph glyph-name="j" unicode="j" horiz-adv-x="454" 
d="M160 1307v172h147v-172h-147zM57 -225q102 0 103 131v1159h147v-1171q0 -130 -52 -186t-165 -56q-25 0 -82 8v123q37 -8 49 -8z" />
    <glyph glyph-name="k" unicode="k" horiz-adv-x="796" 
d="M135 0v1479h148v-934h4l282 520h152l-197 -340l246 -725h-152l-192 578h-4l-139 -263v-315h-148z" />
    <glyph glyph-name="l" unicode="l" horiz-adv-x="454" 
d="M154 0v1479h147v-1479h-147z" />
    <glyph glyph-name="m" unicode="m" horiz-adv-x="1366" 
d="M311 0h-147v1065h135v-117q117 137 248 137q63 0 117 -37q53 -38 73 -98q123 135 237 135t170 -65q56 -66 56 -180v-840h-147v819q0 82 -26 113t-78 31q-52 -1 -80 -17q-29 -16 -36 -20q-12 -7 -41 -36l-20 -20q-16 -16 -16 -18v-852h-148v819q0 80 -27 112
q-28 32 -79 32q-86 0 -145 -59q-17 -17 -46 -52v-852z" />
    <glyph glyph-name="n" unicode="n" 
d="M147 0v1065h140v-117q55 58 124 98t117 39q233 0 234 -278v-807h-148v786q0 176 -116 177q-98 0 -203 -132v-831h-148z" />
    <glyph glyph-name="o" unicode="o" horiz-adv-x="796" 
d="M72 532q0 287 79 420t247 133t246 -133q79 -133 79 -420q0 -288 -79 -420t-247 -132q-169 0 -247 132t-78 420zM219 532q0 -254 40 -342t138 -88t139 88q40 88 39 342q0 254 -39 342q-40 88 -138 88t-139 -88q-40 -88 -40 -342z" />
    <glyph glyph-name="p" unicode="p" 
d="M307 860v-663q94 -94 160 -95q98 0 147 98q50 98 50 331q0 235 -52 333t-149 99q-35 0 -79 -29t-77 -74zM283 1065v-102h4q80 123 217 123t222 -133q85 -132 85 -421q0 -288 -85 -420t-222 -132q-98 0 -197 98v-426h-147v1413h123z" />
    <glyph glyph-name="q" unicode="q" 
d="M446 963q-98 -1 -149 -99t-51 -333t49 -331t147 -98q66 1 160 95v663q-33 45 -77 74t-79 29zM627 963v102h123v-1413h-148v426q-98 -98 -196 -98q-137 0 -223 132q-85 132 -85 420t85 421q85 132 223 132t217 -122h4z" />
    <glyph glyph-name="r" unicode="r" horiz-adv-x="569" 
d="M135 0v1065h148v-129h4q63 92 119 121t151 28v-139q-89 0 -153 -40t-121 -148v-758h-148z" />
    <glyph glyph-name="s" unicode="s" horiz-adv-x="796" 
d="M392 963q-66 0 -100 -37t-34 -93q0 -55 46 -105t113 -90t133 -84t113 -116q46 -72 46 -182t-83 -193t-215 -83t-212 72t-121 210l135 29q61 -188 195 -189q61 0 107 48t46 116q0 66 -46 120t-113 94q-68 40 -134 83t-112 111t-45 164q0 96 78 172q79 76 198 75
q242 0 297 -254l-123 -36q-23 82 -62 125q-41 43 -107 43z" />
    <glyph glyph-name="t" unicode="t" horiz-adv-x="569" 
d="M16 942v123h144v356h147v-356h197v-123h-197v-745q0 -106 107 -107q29 0 90 21v-111q-68 -20 -156 -20q-188 0 -188 229v733h-144z" />
    <glyph glyph-name="u" unicode="u" 
d="M762 1065v-1065h-139v117q-55 -57 -124 -97t-118 -40q-233 0 -234 278v807h148v-786q0 -176 117 -177q98 0 202 131v832h148z" />
    <glyph glyph-name="v" unicode="v" horiz-adv-x="796" 
d="M37 1065h147l213 -918h4l209 918h148l-262 -1065h-197z" />
    <glyph glyph-name="w" unicode="w" horiz-adv-x="1138" 
d="M37 1065h139l152 -782h4l172 782h139l176 -782h4l140 782h139l-221 -1065h-123l-185 827h-4l-184 -827h-123z" />
    <glyph glyph-name="x" unicode="x" horiz-adv-x="681" 
d="M248 553l-246 512h152l176 -373l155 373h152l-229 -512l270 -553h-152l-192 418l-180 -418h-152z" />
    <glyph glyph-name="y" unicode="y" horiz-adv-x="681" 
d="M96 -348h-76v123h46q176 0 221 233l-283 1057h152l200 -815h4l164 815h152l-244 -1042q-88 -371 -336 -371z" />
    <glyph glyph-name="z" unicode="z" horiz-adv-x="681" 
d="M80 942v123h553v-98l-422 -844h422v-123h-586v111l410 831h-377z" />
    <glyph glyph-name="braceleft" unicode="{" horiz-adv-x="569" 
d="M33 596v82q63 0 91 38t28 134v453q0 96 52 146t140 50h131v-82h-106q-82 0 -82 -106v-482q0 -88 -46 -135t-110 -55v-4q63 -8 109 -55t47 -136v-481q0 -106 82 -106h106v-82h-131q-88 0 -140 50t-52 146v453q0 96 -28 134t-91 38z" />
    <glyph glyph-name="bar" unicode="|" horiz-adv-x="454" 
d="M160 -20v1519h135v-1519h-135z" />
    <glyph glyph-name="braceright" unicode="}" horiz-adv-x="569" 
d="M537 678v-82q-63 0 -91 -38t-28 -134v-453q0 -96 -52 -146t-141 -50h-131v82h107q82 0 82 106v481q0 88 46 136t109 55v4q-63 8 -109 55t-46 135v482q0 106 -82 106h-107v82h131q89 0 141 -50t52 -146v-453q0 -96 28 -134t91 -38z" />
    <glyph glyph-name="asciitilde" unicode="~" horiz-adv-x="1228" 
d="M838 395q-86 0 -236 68q-170 72 -220 72t-92 -38t-89 -110l-78 102q104 180 268 181q86 0 236 -68q170 -72 220 -72t92 38t89 110l78 -103q-104 -180 -268 -180z" />
    <glyph glyph-name="exclamdown" unicode="&#xa1;" horiz-adv-x="681" 
d="M428 872h-172v193h172v-193zM395 627l33 -1041h-172l33 1041h106z" />
    <glyph glyph-name="cent" unicode="&#xa2;" 
d="M451 123q73 0 113 50t59 183h143q-18 -164 -97 -260t-218 -96q-47 0 -76 10l-56 -243h-98l64 278q-160 109 -160 508q0 287 79 420t247 133q37 0 71 -6l51 231h99l-60 -266q121 -80 150 -295h-144q-7 94 -40 143l-177 -784q20 -6 50 -6zM451 983q-99 0 -139 -88t-40 -349
t47 -347l177 778q-18 6 -45 6z" />
    <glyph glyph-name="sterling" unicode="&#xa3;" 
d="M389 504q0 -152 -49 -266q104 -119 201 -119q152 0 151 270h135q1 -231 -65 -320t-219 -89q-70 0 -142 45t-116 110q-98 -137 -219 -155v139q176 82 176 360q0 16 -17 197h-159v123h135q-4 20 -30 127t-28 202q0 184 84 278t213 93q322 0 346 -426h-135q-16 145 -60 224
t-131 79t-128 -51t-41 -157q-1 -106 25 -223q26 -116 32 -146h217v-123h-192q16 -128 16 -172z" />
    <glyph glyph-name="currency" unicode="&#xa4;" 
d="M160 739q0 -135 82 -223t213 -88t213 88t82 223t-82 223t-213 89q-131 -1 -213 -89t-82 -223zM455 297q-164 0 -262 92l-95 -96l-86 86l94 100q-42 41 -66 114t-24 147t25 146q25 73 65 113l-94 101l86 86l95 -96q98 92 262 92t262 -92l94 96l86 -86l-94 -101
q41 -41 65 -113t25 -147q0 -75 -25 -147t-65 -113l94 -100l-86 -86l-94 96q-98 -92 -262 -92z" />
    <glyph glyph-name="yen" unicode="&#xa5;" 
d="M858 610v-123h-328v-487h-147v487h-328v123h328v17l-70 172h-258v123h209l-225 557h147l273 -680l264 680h147l-221 -557h209v-123h-258l-70 -172v-17h328z" />
    <glyph glyph-name="brokenbar" unicode="&#xa6;" horiz-adv-x="454" 
d="M160 918v581h135v-581h-135zM160 -20v581h135v-581h-135z" />
    <glyph glyph-name="section" unicode="&#xa7;" horiz-adv-x="1024" 
d="M266 802q0 -66 148 -222q148 -158 235 -158q45 0 77 37t32 84q0 87 -146 241t-227 154q-57 0 -88 -35t-31 -101zM512 1389q-131 0 -131 -121q0 -87 181 -251q75 -69 150 -141t128 -157q53 -84 53 -173q0 -90 -65 -150t-164 -60q122 -142 122 -254t-74 -183t-182 -71
q-199 0 -329 172l98 78q35 -60 96 -100t121 -40t98 40q37 40 37 94q0 101 -183 270q-77 72 -154 146t-130 163q-53 88 -53 174q0 87 71 143t167 56q-123 119 -123 258q0 90 67 154q68 63 183 63q166 0 307 -164l-98 -78q-35 51 -89 91t-104 41z" />
    <glyph glyph-name="dieresis" unicode="&#xa8;" horiz-adv-x="454" 
d="M295 1204v209h135v-209h-135zM25 1204v209h135v-209h-135z" />
    <glyph glyph-name="copyright" unicode="&#xa9;" horiz-adv-x="1638" 
d="M846 268q-203 0 -328 135t-125 340t121 336t326 131q150 0 255 -83t128 -230h-129q-16 84 -85 137t-167 53q-143 0 -222 -96q-79 -97 -79 -245t84 -251t221 -104q100 1 167 57t81 146h131q-33 -146 -136 -236t-243 -90zM201 740q0 -270 178 -454t441 -184q262 0 440 184
t178 453t-178 453t-440 184t-441 -183q-178 -183 -178 -453zM820 1499q316 0 540 -219t225 -540q-1 -320 -225 -540t-540 -220t-541 220t-225 540t224 540q226 220 542 219z" />
    <glyph glyph-name="ordfeminine" unicode="&#xaa;" horiz-adv-x="544" 
d="M152 1013q0 -51 19 -69t65 -18q75 -1 116 65v185q-76 -25 -138 -69t-62 -94zM269 1499q91 0 143 -48t51 -134v-356q0 -90 16 -113h-106l-13 37q-43 -49 -132 -49t-138 46t-49 126q0 106 96 172t215 94v37q0 98 -86 98q-92 0 -110 -109l-95 13q13 82 65 134t143 52z" />
    <glyph glyph-name="guillemotleft" unicode="&#xab;" horiz-adv-x="1024" 
d="M856 217h-139l-254 315l254 316h139l-262 -316zM561 217h-139l-254 315l254 316h139l-262 -316z" />
    <glyph glyph-name="logicalnot" unicode="&#xac;" horiz-adv-x="1228" 
d="M1012 246v438h-930v135h1065v-573h-135z" />
    <glyph glyph-name="registered" unicode="&#xae;" horiz-adv-x="1638" 
d="M201 740q0 -270 178 -454t441 -184q262 0 440 184t178 453t-178 453t-440 184t-441 -183q-178 -183 -178 -453zM820 1499q316 0 540 -219t225 -540q-1 -320 -225 -540t-540 -220t-541 220t-225 540t224 540q226 220 542 219zM666 1065v-270h147q129 1 178 27t49 103
t-45 109t-149 31h-180zM666 680v-389h-136v889h338q307 0 308 -252q0 -111 -60 -170t-155 -74l239 -393h-162l-235 389h-137z" />
    <glyph glyph-name="macron" unicode="&#xaf;" horiz-adv-x="454" 
d="M500 1257h-545v99h545v-99z" />
    <glyph glyph-name="degree" unicode="&#xb0;" horiz-adv-x="819" 
d="M106 1196q0 125 90 214t214 89q125 0 214 -89t89 -214t-89 -214t-214 -89q-124 0 -214 89t-90 214zM606 1196q0 86 -56 147t-140 61t-140 -60q-56 -62 -57 -148q0 -86 56 -147q57 -61 141 -61t140 60q56 62 56 148z" />
    <glyph glyph-name="plusminus" unicode="&#xb1;" horiz-adv-x="1228" 
d="M82 0v135h1065v-135h-1065zM547 717v348h135v-348h465v-135h-465v-349h-135v349h-465v135h465z" />
    <glyph glyph-name="twosuperior" unicode="&#xb2;" horiz-adv-x="544" 
d="M500 598h-455v102q35 98 120 210t146 202t62 166q0 115 -90 115q-55 0 -87 -34t-40 -120h-103q16 260 228 260q98 0 156 -57q59 -56 59 -148q1 -160 -139 -319q-139 -159 -189 -270h332v-107z" />
    <glyph glyph-name="threesuperior" unicode="&#xb3;" horiz-adv-x="544" 
d="M61 1303q-1 88 49 142t142 54t154 -55t61 -160q0 -176 -123 -207v-4q139 -45 139 -223q0 -133 -61 -199q-60 -65 -164 -65t-163 61q-58 61 -58 164h110q9 -119 115 -119t107 156q0 90 -47 128t-150 40v106q96 -2 138 31t42 125q0 115 -90 115q-48 1 -68 -21t-22 -69h-111
z" />
    <glyph glyph-name="acute" unicode="&#xb4;" horiz-adv-x="454" 
d="M471 1466l-258 -282h-102l200 282h160z" />
    <glyph glyph-name="paragraph" unicode="&#xb6;" horiz-adv-x="1024" 
d="M440 -172v868q-186 0 -302 109t-116 292t125 282t306 100h575v-111h-143v-1540h-135v1540h-175v-1540h-135z" />
    <glyph glyph-name="periodcentered" unicode="&#xb7;" horiz-adv-x="454" 
d="M127 532q0 41 30 71q31 30 71 30t70 -30t30 -71q0 -40 -30 -70t-71 -30t-71 30t-29 70z" />
    <glyph glyph-name="cedilla" unicode="&#xb8;" horiz-adv-x="454" 
d="M180 -348q59 0 98 23q38 24 37 61q1 36 -29 62t-72 26t-95 -21l-29 29l123 168h78l-94 -119l4 -4q19 12 75 12t103 -39q47 -38 47 -114t-65 -127t-168 -51t-177 32l29 91q76 -29 135 -29z" />
    <glyph glyph-name="onesuperior" unicode="&#xb9;" horiz-adv-x="544" 
d="M111 598v98h94v672l-99 -8v74q74 16 138 65h88v-803h106v-98h-327z" />
    <glyph glyph-name="ordmasculine" unicode="&#xba;" horiz-adv-x="477" 
d="M27 1167q0 174 50 253t160 79q111 0 161 -80t50 -252t-50 -252q-52 -79 -162 -79t-159 78q-50 78 -50 253zM334 1167q0 139 -22 189t-76 49q-54 0 -74 -49q-20 -48 -20 -188t20 -189t74 -49t76 49t22 188z" />
    <glyph glyph-name="guillemotright" unicode="&#xbb;" horiz-adv-x="1024" 
d="M168 848h139l254 -316l-254 -315h-139l262 315zM463 848h139l254 -316l-254 -315h-139l262 315z" />
    <glyph glyph-name="onequarter" unicode="&#xbc;" horiz-adv-x="1363" 
d="M143 598v98h95v672l-99 -8v74q74 16 137 65h89v-803h106v-98h-328zM313 -20h-127l899 1519h127zM1184 887v-584h102v-106h-102v-197h-115v197h-285v92l246 598h154zM1069 303v424h-4l-166 -424h170z" />
    <glyph glyph-name="onehalf" unicode="&#xbd;" horiz-adv-x="1363" 
d="M1311 0h-455v102q35 98 120 210t146 202t62 166q0 115 -90 115q-55 0 -87 -34t-40 -120h-103q16 260 228 260q98 0 156 -57q58 -56 58 -148q1 -160 -138 -320q-140 -159 -189 -270h332v-106zM143 598v98h95v672l-99 -8v74q74 16 137 65h89v-803h106v-98h-328zM305 -20
h-127l899 1519h127z" />
    <glyph glyph-name="threequarters" unicode="&#xbe;" horiz-adv-x="1363" 
d="M102 1303q0 88 50 142t141 54q92 0 153 -55t62 -160q0 -176 -123 -207v-4q139 -45 139 -223q0 -133 -61 -199q-61 -65 -165 -65t-162 61t-58 164h110q8 -119 114 -119t108 156q0 90 -48 128t-149 40v106q96 -2 138 31t42 125q0 115 -90 115q-49 1 -69 -21t-21 -69h-111z
M305 -20h-127l899 1519h127zM1184 887v-584h102v-106h-102v-197h-115v197h-285v92l246 598h154zM1069 303v424h-4l-166 -424h170z" />
    <glyph glyph-name="questiondown" unicode="&#xbf;" horiz-adv-x="796" 
d="M569 872h-172v193h172v-193zM414 627h114v-103q0 -106 -39 -200t-86 -152t-86 -147q-39 -87 -39 -173t36 -124t90 -39q54 0 94 54q39 54 45 122l123 -25q-10 -122 -83 -198t-188 -76t-189 72t-75 184q0 193 99 331q42 56 84 111q100 131 100 281v82z" />
    <glyph glyph-name="Agrave" unicode="&#xc0;" 
d="M469 1556l-258 283h160l200 -283h-102zM344 1479h221l326 -1479h-160l-88 438h-377l-88 -438h-160zM453 1368l-164 -795h332l-164 795h-4z" />
    <glyph glyph-name="Aacute" unicode="&#xc1;" 
d="M698 1839l-258 -283h-102l201 283h159zM344 1479h221l326 -1479h-160l-88 438h-377l-88 -438h-160zM453 1368l-164 -795h332l-164 795h-4z" />
    <glyph glyph-name="Acircumflex" unicode="&#xc2;" 
d="M178 1556l207 283h139l207 -283h-131l-145 209l-146 -209h-131zM344 1479h221l326 -1479h-160l-88 438h-377l-88 -438h-160zM453 1368l-164 -795h332l-164 795h-4z" />
    <glyph glyph-name="Atilde" unicode="&#xc3;" 
d="M592 1688q66 0 78 102h73q-12 -201 -159 -201q-45 0 -135 45t-127 45q-74 0 -82 -102h-74q2 74 46 137q44 64 106 64t151 -45q90 -45 123 -45zM344 1479h221l326 -1479h-160l-88 438h-377l-88 -438h-160zM453 1368l-164 -795h332l-164 795h-4z" />
    <glyph glyph-name="Adieresis" unicode="&#xc4;" 
d="M522 1577v209h135v-209h-135zM252 1577v209h135v-209h-135zM344 1479h221l326 -1479h-160l-88 438h-377l-88 -438h-160zM453 1368l-164 -795h332l-164 795h-4z" />
    <glyph glyph-name="Aring" unicode="&#xc5;" 
d="M346 1751q0 -43 33 -76t76 -33t75 33t33 76q0 43 -33 76q-34 33 -76 33t-75 -33t-33 -76zM260 1751q0 80 56 137q56 58 138 58t139 -58q56 -58 56 -137q0 -80 -56 -137q-56 -58 -138 -58q-83 0 -139 58t-56 137zM344 1479h221l326 -1479h-160l-88 438h-377l-88 -438h-160
zM453 1368l-164 -795h332l-164 795h-4z" />
    <glyph glyph-name="AE" unicode="&#xc6;" horiz-adv-x="1478" 
d="M733 573v816h-4l-319 -816h323zM1380 1479v-136h-487v-503h381v-135h-381v-570h512v-135h-672v438h-377l-168 -438h-170l594 1479h768z" />
    <glyph glyph-name="Ccedilla" unicode="&#xc7;" horiz-adv-x="1024" 
d="M465 -348q59 0 97 24t38 60t-30 62t-72 26t-95 -21l-28 29l109 149q-182 15 -286 185t-104 573t110 581t318 179q342 0 379 -467h-160q-29 332 -219 332q-140 0 -204 -142t-64 -482t63 -483q63 -142 205 -142q117 0 177 89t63 288h160q-4 -246 -102 -372t-260 -139
l-79 -100l4 -4q23 12 79 12t101 -39q46 -38 46 -114t-65 -127t-168 -51t-177 32l29 91q76 -29 135 -29z" />
    <glyph glyph-name="Egrave" unicode="&#xc8;" 
d="M481 1556l-258 283h160l201 -283h-103zM135 1479h676v-136h-516v-503h381v-135h-381v-570h541v-135h-701v1479z" />
    <glyph glyph-name="Eacute" unicode="&#xc9;" 
d="M711 1839l-258 -283h-103l201 283h160zM135 1479h676v-136h-516v-503h381v-135h-381v-570h541v-135h-701v1479z" />
    <glyph glyph-name="Ecircumflex" unicode="&#xca;" 
d="M190 1556l207 283h140l206 -283h-131l-145 209l-145 -209h-132zM135 1479h676v-136h-516v-503h381v-135h-381v-570h541v-135h-701v1479z" />
    <glyph glyph-name="Edieresis" unicode="&#xcb;" 
d="M535 1577v209h135v-209h-135zM264 1577v209h135v-209h-135zM135 1479h676v-136h-516v-503h381v-135h-381v-570h541v-135h-701v1479z" />
    <glyph glyph-name="Igrave" unicode="&#xcc;" horiz-adv-x="454" 
d="M242 1556l-258 283h159l201 -283h-102zM147 1479h160v-1479h-160v1479z" />
    <glyph glyph-name="Iacute" unicode="&#xcd;" horiz-adv-x="454" 
d="M471 1839l-258 -283h-102l200 283h160zM147 1479h160v-1479h-160v1479z" />
    <glyph glyph-name="Icircumflex" unicode="&#xce;" horiz-adv-x="454" 
d="M-49 1556l207 283h139l207 -283h-131l-146 209l-145 -209h-131zM147 1479h160v-1479h-160v1479z" />
    <glyph glyph-name="Idieresis" unicode="&#xcf;" horiz-adv-x="454" 
d="M295 1577v209h135v-209h-135zM25 1577v209h135v-209h-135zM147 1479h160v-1479h-160v1479z" />
    <glyph glyph-name="Eth" unicode="&#xd0;" horiz-adv-x="1024" 
d="M25 840h110v639h275q240 0 371 -163q130 -163 129 -578q-1 -414 -131 -576t-369 -162h-275v705h-110v135zM295 840h246v-135h-246v-570h86q93 0 157 24q144 54 188 273q24 121 24 307q0 368 -98 493q-50 64 -113 88t-158 23h-86v-503z" />
    <glyph glyph-name="Ntilde" unicode="&#xd1;" horiz-adv-x="1024" 
d="M649 1688q66 0 78 102h74q-12 -201 -160 -201q-45 0 -135 45t-127 45q-74 0 -82 -102h-74q2 74 46 137q43 64 105 64t152 -45t123 -45zM115 1479h250l380 -1090h5v1090h159v-1479h-172l-458 1286h-5v-1286h-159v1479z" />
    <glyph glyph-name="Ograve" unicode="&#xd2;" horiz-adv-x="1024" 
d="M526 1556l-258 283h160l201 -283h-103zM930 739q0 -760 -418 -759q-418 0 -418 760t418 759q418 0 418 -760zM770 739q0 240 -36 383q-36 142 -90 192t-132 50t-132 -49t-90 -193t-36 -383q0 -240 36 -383t90 -192t132 -49t132 49t90 192t36 383z" />
    <glyph glyph-name="Oacute" unicode="&#xd3;" horiz-adv-x="1024" 
d="M756 1839l-258 -283h-103l201 283h160zM930 739q0 -760 -418 -759q-418 0 -418 760t418 759q418 0 418 -760zM770 739q0 240 -36 383q-36 142 -90 192t-132 50t-132 -49t-90 -193t-36 -383q0 -240 36 -383t90 -192t132 -49t132 49t90 192t36 383z" />
    <glyph glyph-name="Ocircumflex" unicode="&#xd4;" horiz-adv-x="1024" 
d="M236 1556l206 283h140l206 -283h-131l-145 209l-145 -209h-131zM930 739q0 -760 -418 -759q-418 0 -418 760t418 759q418 0 418 -760zM770 739q0 240 -36 383q-36 142 -90 192t-132 50t-132 -49t-90 -193t-36 -383q0 -240 36 -383t90 -192t132 -49t132 49t90 192t36 383z
" />
    <glyph glyph-name="Otilde" unicode="&#xd5;" horiz-adv-x="1024" 
d="M649 1688q66 0 78 102h74q-12 -201 -160 -201q-45 0 -135 45t-127 45q-74 0 -82 -102h-74q2 74 46 137q43 64 105 64t152 -45t123 -45zM930 739q0 -760 -418 -759q-418 0 -418 760t418 759q418 0 418 -760zM770 739q0 240 -36 383q-36 142 -90 192t-132 50t-132 -49
t-90 -193t-36 -383q0 -240 36 -383t90 -192t132 -49t132 49t90 192t36 383z" />
    <glyph glyph-name="Odieresis" unicode="&#xd6;" horiz-adv-x="1024" 
d="M580 1577v209h135v-209h-135zM309 1577v209h135v-209h-135zM930 739q0 -760 -418 -759q-418 0 -418 760t418 759q418 0 418 -760zM770 739q0 240 -36 383q-36 142 -90 192t-132 50t-132 -49t-90 -193t-36 -383q0 -240 36 -383t90 -192t132 -49t132 49t90 192t36 383z" />
    <glyph glyph-name="multiply" unicode="&#xd7;" horiz-adv-x="1228" 
d="M1147 967l-434 -435l434 -434l-98 -98l-435 436l-434 -436l-98 98l434 434l-434 435l98 98l434 -436l435 436z" />
    <glyph glyph-name="Oslash" unicode="&#xd8;" horiz-adv-x="1024" 
d="M94 739q0 760 418 760q125 0 213 -69l86 217h111l-119 -304q127 -193 127 -604q0 -760 -418 -759q-131 -1 -221 77l-119 -303h-111l156 389q-123 190 -123 596zM520 1364q-86 0 -140 -49t-90 -193t-36 -390q0 -247 39 -390h4l371 942q-62 80 -148 80zM500 115
q90 0 144 49t90 192t36 391t-41 408h-4l-375 -950q60 -90 150 -90z" />
    <glyph glyph-name="Ugrave" unicode="&#xd9;" horiz-adv-x="1024" 
d="M526 1556l-258 283h160l201 -283h-103zM135 1479h160v-1086q0 -279 217 -278q217 0 217 278v1086h160v-1090q0 -188 -93 -299q-94 -110 -284 -110t-284 110q-93 111 -93 299v1090z" />
    <glyph glyph-name="Uacute" unicode="&#xda;" horiz-adv-x="1024" 
d="M756 1839l-258 -283h-103l201 283h160zM135 1479h160v-1086q0 -279 217 -278q217 0 217 278v1086h160v-1090q0 -188 -93 -299q-94 -110 -284 -110t-284 110q-93 111 -93 299v1090z" />
    <glyph glyph-name="Ucircumflex" unicode="&#xdb;" horiz-adv-x="1024" 
d="M236 1556l206 283h140l206 -283h-131l-145 209l-145 -209h-131zM135 1479h160v-1086q0 -279 217 -278q217 0 217 278v1086h160v-1090q0 -188 -93 -299q-94 -110 -284 -110t-284 110q-93 111 -93 299v1090z" />
    <glyph glyph-name="Udieresis" unicode="&#xdc;" horiz-adv-x="1024" 
d="M580 1577v209h135v-209h-135zM309 1577v209h135v-209h-135zM135 1479h160v-1086q0 -279 217 -278q217 0 217 278v1086h160v-1090q0 -188 -93 -299q-94 -110 -284 -110t-284 110q-93 111 -93 299v1090z" />
    <glyph glyph-name="Yacute" unicode="&#xdd;" 
d="M698 1839l-258 -283h-102l201 283h159zM537 0h-160v627l-344 852h172l254 -648l246 648h172l-340 -852v-627z" />
    <glyph glyph-name="Thorn" unicode="&#xde;" 
d="M274 1012v-541h168q254 0 254 270t-254 271h-168zM115 0v1479h159v-332h189q178 0 286 -111q107 -111 107 -295t-108 -295t-285 -110h-189v-336h-159z" />
    <glyph glyph-name="germandbls" unicode="&#xdf;" 
d="M147 0v1188q0 127 81 219q80 92 224 92t233 -101t89 -272q0 -215 -147 -299q90 -45 143 -135t53 -270q0 -442 -280 -442q-57 0 -113 24v127q47 -29 100 -29q145 0 146 295q0 197 -49 277t-172 80v123q88 6 130 62t42 188q0 133 -48 191t-121 58t-118 -52t-45 -136v-1188
h-148z" />
    <glyph glyph-name="agrave" unicode="&#xe0;" 
d="M469 1184l-258 282h160l200 -282h-102zM246 266q0 -164 151 -164q97 0 203 111v360q-118 -36 -236 -112q-118 -77 -118 -195zM448 1085q139 0 220 -79q80 -80 80 -224v-594q0 -147 26 -188h-153l-19 90q-45 -45 -112 -78t-115 -32q-125 0 -201 74t-76 184q0 203 164 313
t338 145v76q0 88 -42 139t-116 51t-120 -62t-60 -146l-135 20q23 137 102 224q80 87 219 87z" />
    <glyph glyph-name="aacute" unicode="&#xe1;" 
d="M698 1466l-258 -282h-102l201 282h159zM246 266q0 -164 151 -164q97 0 203 111v360q-118 -36 -236 -112q-118 -77 -118 -195zM448 1085q139 0 220 -79q80 -80 80 -224v-594q0 -147 26 -188h-153l-19 90q-45 -45 -112 -78t-115 -32q-125 0 -201 74t-76 184q0 203 164 313
t338 145v76q0 88 -42 139t-116 51t-120 -62t-60 -146l-135 20q23 137 102 224q80 87 219 87z" />
    <glyph glyph-name="acircumflex" unicode="&#xe2;" 
d="M178 1184l207 282h139l207 -282h-131l-145 209l-146 -209h-131zM246 266q0 -164 151 -164q97 0 203 111v360q-118 -36 -236 -112q-118 -77 -118 -195zM448 1085q139 0 220 -79q80 -80 80 -224v-594q0 -147 26 -188h-153l-19 90q-45 -45 -112 -78t-115 -32q-125 0 -201 74
t-76 184q0 203 164 313t338 145v76q0 88 -42 139t-116 51t-120 -62t-60 -146l-135 20q23 137 102 224q80 87 219 87z" />
    <glyph glyph-name="atilde" unicode="&#xe3;" 
d="M592 1315q66 0 78 102h73q-12 -201 -159 -200q-45 0 -135 45t-127 45q-74 -1 -82 -103h-74q2 74 46 137t106 63t151 -44q90 -45 123 -45zM246 266q0 -164 151 -164q97 0 203 111v360q-118 -36 -236 -112q-118 -77 -118 -195zM448 1085q139 0 220 -79q80 -80 80 -224v-594
q0 -147 26 -188h-153l-19 90q-45 -45 -112 -78t-115 -32q-125 0 -201 74t-76 184q0 203 164 313t338 145v76q0 88 -42 139t-116 51t-120 -62t-60 -146l-135 20q23 137 102 224q80 87 219 87z" />
    <glyph glyph-name="adieresis" unicode="&#xe4;" 
d="M522 1204v209h135v-209h-135zM252 1204v209h135v-209h-135zM246 266q0 -164 151 -164q97 0 203 111v360q-118 -36 -236 -112q-118 -77 -118 -195zM448 1085q139 0 220 -79q80 -80 80 -224v-594q0 -147 26 -188h-153l-19 90q-45 -45 -112 -78t-115 -32q-125 0 -201 74
t-76 184q0 203 164 313t338 145v76q0 88 -42 139t-116 51t-120 -62t-60 -146l-135 20q23 137 102 224q80 87 219 87z" />
    <glyph glyph-name="aring" unicode="&#xe5;" 
d="M346 1378q0 -44 33 -76t76 -32t75 33t33 75q0 42 -33 76q-34 33 -76 33t-75 -33t-33 -76zM260 1378q0 80 56 138t138 57q82 0 139 -57q56 -58 56 -138t-56 -137t-138 -57t-139 57q-56 57 -56 137zM246 266q0 -164 151 -164q97 0 203 111v360q-118 -36 -236 -112
q-118 -77 -118 -195zM448 1085q139 0 220 -79q80 -80 80 -224v-594q0 -147 26 -188h-153l-19 90q-45 -45 -112 -78t-115 -32q-125 0 -201 74t-76 184q0 203 164 313t338 145v76q0 88 -42 139t-116 51t-120 -62t-60 -146l-135 20q23 137 102 224q80 87 219 87z" />
    <glyph glyph-name="ae" unicode="&#xe6;" horiz-adv-x="1251" 
d="M1178 508h-504v-59q0 -179 59 -263t139 -84q139 0 179 201l139 -16q-18 -127 -106 -217t-214 -90q-190 0 -266 145q-133 -145 -262 -145t-205 74t-76 184q0 201 168 319q139 97 297 139v76q0 94 -37 142t-98 48t-106 -64q-45 -65 -60 -144l-135 20q23 137 103 224
q81 87 219 87t209 -131q91 131 243 131t233 -134t81 -373v-70zM861 963q-87 0 -136 -82t-51 -250h356q-4 178 -43 255t-126 77zM209 266q0 -164 151 -164q45 0 93 33q46 33 73 78v360q-317 -133 -317 -307z" />
    <glyph glyph-name="ccedilla" unicode="&#xe7;" horiz-adv-x="796" 
d="M352 -348q59 0 98 23q38 24 37 61q1 36 -29 62t-72 26t-95 -21l-29 29l109 148q-147 10 -223 138t-76 414t79 420q79 133 246 133q264 0 312 -335h-144q-18 213 -168 213q-98 -1 -138 -89t-40 -342t40 -342t138 -88q74 0 114 50t58 184h144q-17 -164 -89 -250t-174 -103
l-81 -102l4 -4q19 12 75 12t103 -39q47 -38 47 -114t-64 -127t-168 -51t-178 32l29 91q76 -29 135 -29z" />
    <glyph glyph-name="egrave" unicode="&#xe8;" horiz-adv-x="796" 
d="M414 1184l-258 282h159l201 -282h-102zM723 508h-504v-59q0 -193 46 -270t153 -77q139 0 178 201l139 -16q-18 -127 -108 -217t-230 -90q-169 0 -247 133t-78 419t79 420q79 133 245 133t246 -134q81 -134 81 -373v-70zM402 963q-91 0 -136 -76t-47 -256h356
q-4 178 -43 255t-130 77z" />
    <glyph glyph-name="eacute" unicode="&#xe9;" horiz-adv-x="796" 
d="M643 1466l-258 -282h-102l200 282h160zM723 508h-504v-59q0 -193 46 -270t153 -77q139 0 178 201l139 -16q-18 -127 -108 -217t-230 -90q-169 0 -247 133t-78 419t79 420q79 133 245 133t246 -134q81 -134 81 -373v-70zM402 963q-91 0 -136 -76t-47 -256h356
q-4 178 -43 255t-130 77z" />
    <glyph glyph-name="ecircumflex" unicode="&#xea;" horiz-adv-x="796" 
d="M123 1184l207 282h139l207 -282h-131l-146 209l-145 -209h-131zM723 508h-504v-59q0 -193 46 -270t153 -77q139 0 178 201l139 -16q-18 -127 -108 -217t-230 -90q-169 0 -247 133t-78 419t79 420q79 133 245 133t246 -134q81 -134 81 -373v-70zM402 963q-91 0 -136 -76
t-47 -256h356q-4 178 -43 255t-130 77z" />
    <glyph glyph-name="edieresis" unicode="&#xeb;" horiz-adv-x="796" 
d="M467 1204v209h135v-209h-135zM197 1204v209h135v-209h-135zM723 508h-504v-59q0 -193 46 -270t153 -77q139 0 178 201l139 -16q-18 -127 -108 -217t-230 -90q-169 0 -247 133t-78 419t79 420q79 133 245 133t246 -134q81 -134 81 -373v-70zM402 963q-91 0 -136 -76
t-47 -256h356q-4 178 -43 255t-130 77z" />
    <glyph glyph-name="igrave" unicode="&#xec;" horiz-adv-x="454" 
d="M242 1184l-258 282h159l201 -282h-102zM154 0v1065h147v-1065h-147z" />
    <glyph glyph-name="iacute" unicode="&#xed;" horiz-adv-x="454" 
d="M471 1466l-258 -282h-102l200 282h160zM154 0v1065h147v-1065h-147z" />
    <glyph glyph-name="icircumflex" unicode="&#xee;" horiz-adv-x="454" 
d="M-49 1184l207 282h139l207 -282h-131l-146 209l-145 -209h-131zM154 0v1065h147v-1065h-147z" />
    <glyph glyph-name="idieresis" unicode="&#xef;" horiz-adv-x="454" 
d="M295 1204v209h135v-209h-135zM25 1204v209h135v-209h-135zM154 0v1065h147v-1065h-147z" />
    <glyph glyph-name="eth" unicode="&#xf0;" horiz-adv-x="796" 
d="M723 532q0 -288 -79 -420t-247 -132q-169 0 -247 133t-78 419t79 420q79 133 246 133q70 0 101 -18q-20 80 -68 162l-186 -70l-49 94l174 66q-46 64 -99 115l136 45q59 -55 96 -109l200 76l50 -94l-191 -72q162 -285 162 -748zM219 532q0 -254 40 -342t138 -88t139 88
q40 88 39 342q0 254 -39 342q-40 88 -138 88t-139 -88q-40 -88 -40 -342z" />
    <glyph glyph-name="ntilde" unicode="&#xf1;" 
d="M592 1315q66 0 78 102h73q-12 -201 -159 -200q-45 0 -135 45t-127 45q-74 -1 -82 -103h-74q2 74 46 137t106 63t151 -44q90 -45 123 -45zM147 0v1065h140v-117q55 58 124 98t117 39q233 0 234 -278v-807h-148v786q0 176 -116 177q-98 0 -203 -132v-831h-148z" />
    <glyph glyph-name="ograve" unicode="&#xf2;" horiz-adv-x="796" 
d="M414 1184l-258 282h159l201 -282h-102zM72 532q0 287 79 420t247 133t246 -133q79 -133 79 -420q0 -288 -79 -420t-247 -132q-169 0 -247 132t-78 420zM219 532q0 -254 40 -342t138 -88t139 88q40 88 39 342q0 254 -39 342q-40 88 -138 88t-139 -88q-40 -88 -40 -342z
" />
    <glyph glyph-name="oacute" unicode="&#xf3;" horiz-adv-x="796" 
d="M643 1466l-258 -282h-102l200 282h160zM72 532q0 287 79 420t247 133t246 -133q79 -133 79 -420q0 -288 -79 -420t-247 -132q-169 0 -247 132t-78 420zM219 532q0 -254 40 -342t138 -88t139 88q40 88 39 342q0 254 -39 342q-40 88 -138 88t-139 -88q-40 -88 -40 -342z
" />
    <glyph glyph-name="ocircumflex" unicode="&#xf4;" horiz-adv-x="796" 
d="M123 1184l207 282h139l207 -282h-131l-146 209l-145 -209h-131zM72 532q0 287 79 420t247 133t246 -133q79 -133 79 -420q0 -288 -79 -420t-247 -132q-169 0 -247 132t-78 420zM219 532q0 -254 40 -342t138 -88t139 88q40 88 39 342q0 254 -39 342q-40 88 -138 88
t-139 -88q-40 -88 -40 -342z" />
    <glyph glyph-name="otilde" unicode="&#xf5;" horiz-adv-x="796" 
d="M537 1315q66 0 77 102h74q-12 -201 -160 -200q-45 0 -135 45t-127 45q-74 -1 -82 -103h-73q2 74 46 137t105 63q62 0 152 -44q90 -45 123 -45zM72 532q0 287 79 420t247 133t246 -133q79 -133 79 -420q0 -288 -79 -420t-247 -132q-169 0 -247 132t-78 420zM219 532
q0 -254 40 -342t138 -88t139 88q40 88 39 342q0 254 -39 342q-40 88 -138 88t-139 -88q-40 -88 -40 -342z" />
    <glyph glyph-name="odieresis" unicode="&#xf6;" horiz-adv-x="796" 
d="M467 1204v209h135v-209h-135zM197 1204v209h135v-209h-135zM72 532q0 287 79 420t247 133t246 -133q79 -133 79 -420q0 -288 -79 -420t-247 -132q-169 0 -247 132t-78 420zM219 532q0 -254 40 -342t138 -88t139 88q40 88 39 342q0 254 -39 342q-40 88 -138 88t-139 -88
q-40 -88 -40 -342z" />
    <glyph glyph-name="divide" unicode="&#xf7;" horiz-adv-x="1228" 
d="M479 115q0 55 40 95t95 40q56 0 96 -40t40 -95t-40 -95t-96 -40t-95 40q-40 40 -40 95zM479 950q0 56 40 96t95 40t96 -40q40 -40 40 -96t-40 -95q-40 -40 -96 -40t-95 40q-40 40 -40 95zM1147 465h-1065v135h1065v-135z" />
    <glyph glyph-name="oslash" unicode="&#xf8;" horiz-adv-x="796" 
d="M397 102q98 0 139 88q40 88 40 300t-17 307h-4l-258 -660q33 -35 100 -35zM723 546q0 -300 -79 -434q-79 -132 -247 -132q-90 0 -147 36l-105 -262h-102l129 326q-100 131 -100 435t79 437t246 133q96 0 156 -41l96 246h103l-125 -315q96 -129 96 -429zM397 963
q-98 -1 -138 -89t-40 -307t19 -313h4l262 670q-37 39 -107 39z" />
    <glyph glyph-name="ugrave" unicode="&#xf9;" 
d="M469 1184l-258 282h160l200 -282h-102zM762 1065v-1065h-139v117q-55 -57 -124 -97t-118 -40q-233 0 -234 278v807h148v-786q0 -176 117 -177q98 0 202 131v832h148z" />
    <glyph glyph-name="uacute" unicode="&#xfa;" 
d="M698 1466l-258 -282h-102l201 282h159zM762 1065v-1065h-139v117q-55 -57 -124 -97t-118 -40q-233 0 -234 278v807h148v-786q0 -176 117 -177q98 0 202 131v832h148z" />
    <glyph glyph-name="ucircumflex" unicode="&#xfb;" 
d="M178 1184l207 282h139l207 -282h-131l-145 209l-146 -209h-131zM762 1065v-1065h-139v117q-55 -57 -124 -97t-118 -40q-233 0 -234 278v807h148v-786q0 -176 117 -177q98 0 202 131v832h148z" />
    <glyph glyph-name="udieresis" unicode="&#xfc;" 
d="M522 1204v209h135v-209h-135zM252 1204v209h135v-209h-135zM762 1065v-1065h-139v117q-55 -57 -124 -97t-118 -40q-233 0 -234 278v807h148v-786q0 -176 117 -177q98 0 202 131v832h148z" />
    <glyph glyph-name="yacute" unicode="&#xfd;" horiz-adv-x="681" 
d="M586 1466l-258 -282h-103l201 282h160zM96 -348h-76v123h46q176 0 221 233l-283 1057h152l200 -815h4l164 815h152l-244 -1042q-88 -371 -336 -371z" />
    <glyph glyph-name="thorn" unicode="&#xfe;" 
d="M307 860v-663q94 -94 160 -95q98 0 147 98q50 98 50 331q0 235 -52 333t-149 99q-35 0 -79 -29t-77 -74zM299 1479v-492h4q78 98 208 98t215 -132t85 -421q0 -288 -85 -420t-222 -132q-98 0 -197 98v-426h-147v1827h139z" />
    <glyph glyph-name="ydieresis" unicode="&#xff;" horiz-adv-x="681" 
d="M410 1204v209h135v-209h-135zM139 1204v209h135v-209h-135zM96 -348h-76v123h46q176 0 221 233l-283 1057h152l200 -815h4l164 815h152l-244 -1042q-88 -371 -336 -371z" />
    <glyph glyph-name="dotlessi" unicode="&#x131;" horiz-adv-x="454" 
d="M154 0v1065h147v-1065h-147z" />
    <glyph glyph-name="Lslash" unicode="&#x141;" horiz-adv-x="796" 
d="M295 135h479v-135h-639v612l-164 -65v127l164 65v740h160v-674l315 127v-127l-315 -127v-543z" />
    <glyph glyph-name="lslash" unicode="&#x142;" horiz-adv-x="454" 
d="M301 0h-147v756l-162 -84v123l162 84v600h147v-525l162 82v-123l-162 -82v-831z" />
    <glyph glyph-name="OE" unicode="&#x152;" horiz-adv-x="1478" 
d="M741 344v791q0 119 -42 161t-146 43q-160 0 -240 -131t-80 -469t80 -469t240 -131q104 0 146 43t42 162zM901 705v-570h504v-135h-791q-196 0 -310 62q-230 125 -230 677t230 677q114 62 310 63h766v-136h-479v-503h365v-135h-365z" />
    <glyph glyph-name="oe" unicode="&#x153;" horiz-adv-x="1251" 
d="M1182 508h-480v-59q0 -183 48 -265t127 -82q143 0 174 201l139 -16q-14 -125 -101 -216t-215 -91q-172 0 -249 165q-66 -165 -243 -165t-256 133t-79 419t79 420q79 133 247 133q193 0 258 -180q77 180 233 180t237 -134t81 -373v-70zM856 963q-144 0 -154 -332h332
q-4 178 -43 255t-135 77zM195 532q-1 -254 39 -342t138 -88t141 88q42 88 42 342t-42 342t-140 88t-138 -88t-40 -342z" />
    <glyph glyph-name="Scaron" unicode="&#x160;" 
d="M385 1556l-207 283h131l146 -209l145 209h131l-207 -283h-139zM436 1364q-92 0 -147 -54t-55 -142q-1 -157 209 -295q87 -56 174 -119q87 -62 149 -164t61 -234q0 -178 -98 -277t-275 -99t-277 114q-99 115 -103 303h147q3 -133 65 -208t172 -75t168 64q58 62 58 160
q0 173 -154 283q-190 136 -271 202q-169 138 -169 332q0 156 98 250t259 94t259 -104t105 -297h-147q-23 266 -228 266z" />
    <glyph glyph-name="scaron" unicode="&#x161;" horiz-adv-x="796" 
d="M330 1184l-207 282h131l145 -209l146 209h131l-207 -282h-139zM392 963q-66 0 -100 -37t-34 -93q0 -55 46 -105t113 -90t133 -84t113 -116q46 -72 46 -182t-83 -193t-215 -83t-212 72t-121 210l135 29q61 -188 195 -189q61 0 107 48t46 116q0 66 -46 120t-113 94
q-68 40 -134 83t-112 111t-45 164q0 96 78 172q79 76 198 75q242 0 297 -254l-123 -36q-23 82 -62 125q-41 43 -107 43z" />
    <glyph glyph-name="Ydieresis" unicode="&#x178;" 
d="M522 1577v209h135v-209h-135zM252 1577v209h135v-209h-135zM537 0h-160v627l-344 852h172l254 -648l246 648h172l-340 -852v-627z" />
    <glyph glyph-name="Zcaron" unicode="&#x17d;" 
d="M385 1556l-207 283h131l146 -209l145 209h131l-207 -283h-139zM139 1479h680v-111l-549 -1233h549v-135h-729v115l533 1228h-484v136z" />
    <glyph glyph-name="zcaron" unicode="&#x17e;" horiz-adv-x="681" 
d="M272 1184l-206 282h131l145 -209l145 209h131l-206 -282h-140zM80 942v123h553v-98l-422 -844h422v-123h-586v111l410 831h-377z" />
    <glyph glyph-name="florin" unicode="&#x192;" 
d="M158 -225q46 -1 72 21t58 117q54 159 109 878h-180v122h189q12 326 98 456t246 130q33 0 98 -8v-131q-82 16 -90 16q-66 0 -101 -26q-75 -57 -104 -437h176v-122h-184q-39 -507 -76 -692t-65 -260t-68 -118t-84 -56q-43 -13 -96 -13t-86 8v135q41 -20 88 -20z" />
    <glyph glyph-name="circumflex" unicode="&#x2c6;" horiz-adv-x="454" 
d="M-49 1184l207 282h139l207 -282h-131l-146 209l-145 -209h-131z" />
    <glyph glyph-name="caron" unicode="&#x2c7;" horiz-adv-x="454" 
d="M158 1184l-207 282h131l145 -209l146 209h131l-207 -282h-139z" />
    <glyph glyph-name="breve" unicode="&#x2d8;" horiz-adv-x="454" 
d="M236 1290q82 0 122 40t56 124h78q-10 -126 -82 -194t-189 -68t-185 74t-73 188h78q14 -164 195 -164z" />
    <glyph glyph-name="dotaccent" unicode="&#x2d9;" horiz-adv-x="454" 
d="M160 1204v209h135v-209h-135z" />
    <glyph glyph-name="ring" unicode="&#x2da;" horiz-adv-x="454" 
d="M119 1378q0 -44 33 -76q34 -32 76 -32t75 33t33 75t-33 76q-33 33 -76 33t-75 -33t-33 -76zM33 1378q0 80 56 138t138 57q83 0 139 -57q56 -58 56 -138t-56 -137t-138 -57t-139 57q-56 57 -56 137z" />
    <glyph glyph-name="ogonek" unicode="&#x2db;" horiz-adv-x="454" 
d="M88 -236q0 -109 121 -108q86 0 217 84l33 -66q-162 -113 -301 -112q-76 0 -128 45t-52 113q-1 121 78 182q104 81 265 115q32 8 87 20v-21q-171 -60 -246 -121q-74 -60 -74 -131z" />
    <glyph glyph-name="tilde" unicode="&#x2dc;" horiz-adv-x="454" 
d="M365 1315q66 0 77 102h74q-12 -201 -160 -200q-45 0 -135 45t-127 45q-74 -1 -82 -103h-73q2 74 46 137t105 63q62 0 152 -44q90 -45 123 -45z" />
    <glyph glyph-name="hungarumlaut" unicode="&#x2dd;" horiz-adv-x="454" 
d="M586 1466l-258 -282h-103l201 282h160zM340 1466l-250 -282h-98l184 282h164z" />
    <glyph glyph-name="mu" unicode="&#x3bc;" 
d="M762 1065v-1065h-139v117q-55 -57 -124 -97t-118 -40t-86 12v-340h-148v1413h148v-786q0 -176 117 -177q98 0 202 131v832h148z" />
    <glyph glyph-name="endash" unicode="&#x2013;" horiz-adv-x="1024" 
d="M1024 483h-1024v99h1024v-99z" />
    <glyph glyph-name="emdash" unicode="&#x2014;" horiz-adv-x="2048" 
d="M2048 483h-2048v99h2048v-99z" />
    <glyph glyph-name="quoteleft" unicode="&#x2018;" horiz-adv-x="454" 
d="M319 999h-172v205l123 295h62l-94 -307h81v-193z" />
    <glyph glyph-name="quoteright" unicode="&#x2019;" horiz-adv-x="454" 
d="M135 1479h172v-205l-123 -295h-61l94 307h-82v193z" />
    <glyph glyph-name="quotesinglbase" unicode="&#x201a;" horiz-adv-x="454" 
d="M135 193h172v-205l-123 -295h-61l94 307h-82v193z" />
    <glyph glyph-name="quotedblleft" unicode="&#x201c;" horiz-adv-x="796" 
d="M319 999h-172v205l123 295h62l-94 -307h81v-193zM662 999h-173v205l123 295h62l-94 -307h82v-193z" />
    <glyph glyph-name="quotedblright" unicode="&#x201d;" horiz-adv-x="796" 
d="M477 1479h172v-205l-123 -295h-61l94 307h-82v193zM135 1479h172v-205l-123 -295h-61l94 307h-82v193z" />
    <glyph glyph-name="quotedblbase" unicode="&#x201e;" horiz-adv-x="796" 
d="M477 193h172v-205l-123 -295h-61l94 307h-82v193zM135 193h172v-205l-123 -295h-61l94 307h-82v193z" />
    <glyph glyph-name="dagger" unicode="&#x2020;" horiz-adv-x="1024" 
d="M152 971v159l327 -49q-5 200 -49 418h164q-44 -218 -49 -418l327 49v-159l-327 49q2 -92 49 -356q-24 -116 -37 -414t-20 -422h-50q-7 124 -20 427t-37 409q47 264 49 356z" />
    <glyph glyph-name="daggerdbl" unicode="&#x2021;" horiz-adv-x="1024" 
d="M872 1130v-159l-327 49q2 -92 49 -356q-47 -264 -49 -357l327 49v-159l-327 49q5 -200 49 -418h-164q44 218 49 418l-327 -49v159l327 -49q-2 92 -49 357q47 264 49 356l-327 -49v159l327 -49q-5 200 -49 418h164q-44 -218 -49 -418z" />
    <glyph glyph-name="bullet" unicode="&#x2022;" horiz-adv-x="1024" 
d="M141 739q0 153 108 261q107 108 261 108t262 -108t109 -262q0 -154 -109 -262q-108 -108 -262 -108t-262 109q-108 108 -107 262z" />
    <glyph glyph-name="ellipsis" unicode="&#x2026;" horiz-adv-x="2048" 
d="M1620 193h172v-193h-172v193zM938 193h172v-193h-172v193zM256 193h172v-193h-172v193z" />
    <glyph glyph-name="perthousand" unicode="&#x2030;" horiz-adv-x="2048" 
d="M1024 1499h119l-848 -1519h-119zM1516 303q0 -76 54 -132t134 -56t134 56t54 132t-54 132q-54 57 -134 57t-134 -56t-54 -133zM1401 303q0 121 91 212t212 91t212 -91t91 -212t-91 -212t-212 -91t-212 91t-91 212zM786 303q0 -76 54 -132t135 -56q80 0 134 56t54 132
t-54 132q-54 57 -134 57q-81 0 -135 -56t-54 -133zM672 303q0 121 91 212t212 91t212 -91t91 -212t-91 -212t-212 -91t-212 91t-91 212zM156 1176q0 -76 54 -132t134 -57q80 0 134 56q54 57 54 133t-54 132t-134 56t-134 -56t-54 -132zM41 1176q0 121 91 212t212 91t212 -91
t91 -212t-91 -212q-91 -92 -212 -92t-212 92t-91 212z" />
    <glyph glyph-name="guilsinglleft" unicode="&#x2039;" horiz-adv-x="681" 
d="M541 217h-140l-254 315l254 316h140l-262 -316z" />
    <glyph glyph-name="guilsinglright" unicode="&#x203a;" horiz-adv-x="681" 
d="M281 217h-140l262 315l-262 316h140l254 -316z" />
    <glyph glyph-name="fraction" unicode="&#x2044;" horiz-adv-x="342" 
d="M-215 -20h-127l899 1519h127z" />
    <glyph glyph-name="trademark" unicode="&#x2122;" horiz-adv-x="2027" 
d="M1036 1343v-731h-135v867h215l258 -658l254 658h217v-867h-135v731h-4l-289 -731h-90l-285 731h-6zM762 1479v-111h-275v-756h-135v756h-274v111h684z" />
    <glyph glyph-name="minus" unicode="&#x2212;" horiz-adv-x="1228" 
d="M82 465v135h1065v-135h-1065z" />
    <glyph glyph-name="fi" unicode="&#xfb01;" 
d="M629 1307v172h147v-172h-147zM629 0v1065h147v-1065h-147zM4 942v123h164v217q0 111 50 164t167 53q45 0 115 -12v-115q-35 16 -80 17q-104 0 -105 -113v-211h172v-123h-172v-942h-147v942h-164z" />
    <glyph glyph-name="fl" unicode="&#xfb02;" 
d="M629 0v1479h147v-1479h-147zM4 942v123h164v217q0 111 50 164t167 53q45 0 115 -12v-115q-35 16 -80 17q-104 0 -105 -113v-211h172v-123h-172v-942h-147v942h-164z" />
  </font>
</defs>
</svg>
